<svg xmlns="http://www.w3.org/2000/svg" width="128" height="128" viewBox="0 0 128 128">
  <defs>
    <linearGradient id="cpuBg" x1="0%" y1="0%" x2="100%" y2="100%">
      <stop offset="0%" stop-color="#00B894"/>
      <stop offset="100%" stop-color="#009432"/>
    </linearGradient>
  </defs>
  <rect x="30" y="30" width="68" height="68" rx="8" fill="url(#cpuBg)"/>
  <rect x="38" y="38" width="52" height="52" rx="4" fill="#2F3542"/>
  <rect x="44" y="44" width="40" height="40" rx="4" fill="#576574"/>
  <rect x="50" y="50" width="28" height="28" rx="2" fill="#33D9B2" opacity="0.4"/>
  <rect x="56" y="56" width="16" height="4" rx="1" fill="#FFFFFF" opacity="0.6"/>
  <rect x="56" y="64" width="12" height="4" rx="1" fill="#FFFFFF" opacity="0.4"/>
  <rect x="30" y="20" width="8" height="12" rx="2" fill="#00B894"/>
  <rect x="46" y="20" width="8" height="12" rx="2" fill="#00B894"/>
  <rect x="62" y="20" width="8" height="12" rx="2" fill="#00B894"/>
  <rect x="78" y="20" width="8" height="12" rx="2" fill="#00B894"/>
  <rect x="30" y="96" width="8" height="12" rx="2" fill="#00B894"/>
  <rect x="46" y="96" width="8" height="12" rx="2" fill="#00B894"/>
  <rect x="62" y="96" width="8" height="12" rx="2" fill="#00B894"/>
  <rect x="78" y="96" width="8" height="12" rx="2" fill="#00B894"/>
  <rect x="20" y="30" width="12" height="8" rx="2" fill="#00B894"/>
  <rect x="20" y="46" width="12" height="8" rx="2" fill="#00B894"/>
  <rect x="20" y="62" width="12" height="8" rx="2" fill="#00B894"/>
  <rect x="20" y="78" width="12" height="8" rx="2" fill="#00B894"/>
  <rect x="96" y="30" width="12" height="8" rx="2" fill="#00B894"/>
  <rect x="96" y="46" width="12" height="8" rx="2" fill="#00B894"/>
  <rect x="96" y="62" width="12" height="8" rx="2" fill="#00B894"/>
  <rect x="96" y="78" width="12" height="8" rx="2" fill="#00B894"/>
</svg>