<svg xmlns="http://www.w3.org/2000/svg" width="128" height="128" viewBox="0 0 128 128">
  <defs>
    <linearGradient id="secBg" x1="0%" y1="0%" x2="100%" y2="100%">
      <stop offset="0%" stop-color="#5F27CD"/>
      <stop offset="100%" stop-color="#341F97"/>
    </linearGradient>
  </defs>
  <path d="M64 24 Q88 24 96 36 Q104 48 100 72 Q96 96 64 108 Q32 96 28 72 Q24 48 32 36 Q40 24 64 24 Z" fill="url(#secBg)"/>
  <path d="M64 32 Q82 32 88 42 Q94 52 90 70 Q86 88 64 98 Q42 88 38 70 Q34 52 40 42 Q46 32 64 32 Z" fill="none" stroke="#FFFFFF" stroke-width="2" opacity="0.2"/>
  <circle cx="52" cy="58" r="6" fill="#FFFFFF" opacity="0.9"/>
  <rect x="48" y="64" width="26" height="20" rx="4" fill="#FFFFFF" opacity="0.9"/>
  <circle cx="54" cy="72" r="2" fill="#5F27CD"/>
  <rect x="48" y="74" width="26" height="2" rx="1" fill="#5F27CD" opacity="0.4"/>
</svg>