<svg xmlns="http://www.w3.org/2000/svg" width="128" height="128" viewBox="0 0 128 128">
  <defs>
    <linearGradient id="storeBg" x1="0%" y1="0%" x2="0%" y2="100%">
      <stop offset="0%" stop-color="#FF6B6B"/>
      <stop offset="100%" stop-color="#EE5A24"/>
    </linearGradient>
  </defs>
  <rect x="24" y="40" width="80" height="64" rx="8" fill="url(#storeBg)"/>
  <rect x="30" y="46" width="68" height="52" rx="4" fill="#2F3542"/>
  <rect x="36" y="52" width="24" height="40" rx="3" fill="#576574"/>
  <rect x="40" y="56" width="16" height="4" rx="1" fill="#00D2D3" opacity="0.7"/>
  <rect x="40" y="64" width="16" height="4" rx="1" fill="#00D2D3" opacity="0.5"/>
  <rect x="40" y="72" width="16" height="4" rx="1" fill="#00D2D3" opacity="0.3"/>
  <rect x="40" y="80" width="16" height="4" rx="1" fill="#00D2D3" opacity="0.2"/>
  <rect x="66" y="52" width="26" height="18" rx="3" fill="#576574"/>
  <rect x="70" y="56" width="18" height="10" rx="2" fill="#5352ED" opacity="0.6"/>
  <rect x="66" y="76" width="26" height="16" rx="3" fill="#576574"/>
  <rect x="70" y="80" width="18" height="8" rx="2" fill="#33D9B2" opacity="0.5"/>
  <circle cx="64" cy="28" r="12" fill="#FFD32A"/>
  <rect x="60" y="22" width="8" height="12" rx="2" fill="#2F3542"/>
  <rect x="58" y="20" width="12" height="4" rx="2" fill="#2F3542"/>
</svg>