<svg xmlns="http://www.w3.org/2000/svg" width="128" height="128" viewBox="0 0 128 128">
  <!-- Main server -->
  <rect x="34" y="28" width="60" height="44" rx="8" fill="#10AC84"/>
  <!-- Server face -->
  <rect x="42" y="36" width="44" height="28" rx="4" fill="#FFFFFF" opacity="0.15"/>
  <!-- Lights -->
  <circle cx="50" cy="44" r="4" fill="#1DD1A1"/>
  <circle cx="62" cy="44" r="4" fill="#1DD1A1"/>
  <circle cx="74" cy="44" r="4" fill="#FF9F43"/>
  <rect x="46" y="56" width="36" height="4" rx="2" fill="#FFFFFF" opacity="0.4"/>
  <!-- Small client -->
  <rect x="22" y="72" width="32" height="24" rx="4" fill="#10AC84"/>
  <rect x="26" y="76" width="24" height="14" rx="2" fill="#FFFFFF" opacity="0.2"/>
  <circle cx="34" cy="82" r="2" fill="#1DD1A1"/>
  <circle cx="42" cy="82" r="2" fill="#1DD1A1"/>
  <!-- Connection lines -->
  <path d="M38 72 L38 62 L34 62" stroke="#FFFFFF" stroke-width="2" stroke-linecap="round" fill="none"/>
  <path d="M86 72 L86 62 L90 62" stroke="#FFFFFF" stroke-width="2" stroke-linecap="round" fill="none"/>
  <circle cx="34" cy="62" r="3" fill="#10AC84"/>
  <circle cx="90" cy="62" r="3" fill="#10AC84"/>
  <!-- Another client -->
  <rect x="74" y="72" width="32" height="24" rx="4" fill="#10AC84"/>
  <rect x="78" y="76" width="24" height="14" rx="2" fill="#FFFFFF" opacity="0.2"/>
  <circle cx="86" cy="82" r="2" fill="#1DD1A1"/>
  <circle cx="94" cy="82" r="2" fill="#FF9F43"/>
</svg>